<svg xmlns="http://www.w3.org/2000/svg" viewBox="0 0 72 72" fill="none">
  <defs>
    <linearGradient id="gl" x1="0" y1="0" x2="1" y2="1">
      <stop offset="0%" stop-color="#A78BFA"/>
      <stop offset="100%" stop-color="#7C5CE7"/>
    </linearGradient>
    <linearGradient id="gd" x1="0.2" y1="1" x2="0.8" y2="0">
      <stop offset="0%" stop-color="#4C2FB8"/>
      <stop offset="100%" stop-color="#6C4FE0"/>
    </linearGradient>
  </defs>

  <!-- Squircle icon -->
  <rect x="4" y="4" width="64" height="64" rx="18" fill="url(#gd)"/>

  <!-- Organic swoosh -->
  <path d="M12 44C12 34 18 18 36 16C50 14 60 24 58 38C56 50 48 56 38 56C26 56 20 52 20 44C20 34 28 30 38 32"
        stroke="url(#gl)" stroke-width="5" stroke-linecap="round"
        fill="none" opacity="0.75"/>

  <!-- Thin accent -->
  <path d="M16 42C16 34 20 22 36 20C48 18 56 26 54 38C52 48 46 52 38 52C28 52 24 48 24 42C24 34 30 32 38 34"
        stroke="#C4B5FD" stroke-width="2.5" stroke-linecap="round"
        fill="none" opacity="0.6"/>

  <!-- Data bars -->
  <rect x="28" y="36" width="4" height="16" rx="2" fill="#DDD6FE" opacity="0.7"/>
  <rect x="35" y="28" width="4" height="24" rx="2" fill="#EDE9FE" opacity="0.8"/>
  <rect x="42" y="32" width="4" height="20" rx="2" fill="#F5F3FF" opacity="0.75"/>
</svg>
